<?xml version="1.0" encoding="UTF-8" standalone="no"?>
<!-- Created with Inkscape (http://www.inkscape.org/) -->

<svg
   width="400"
   height="240"
   viewBox="0 0 105.83333 63.499998"
   version="1.1"
   id="svg1"
   inkscape:version="1.4.3 (0d15f75042, 2025-12-25)"
   sodipodi:docname="rollo_logo.svg"
   inkscape:export-filename="rollo_logo.png"
   inkscape:export-xdpi="96"
   inkscape:export-ydpi="96"
   xmlns:inkscape="http://www.inkscape.org/namespaces/inkscape"
   xmlns:sodipodi="http://sodipodi.sourceforge.net/DTD/sodipodi-0.dtd"
   xmlns="http://www.w3.org/2000/svg"
   xmlns:svg="http://www.w3.org/2000/svg">
  <sodipodi:namedview
     id="namedview1"
     pagecolor="#ffffff"
     bordercolor="#000000"
     borderopacity="0.25"
     inkscape:showpageshadow="2"
     inkscape:pageopacity="0.0"
     inkscape:pagecheckerboard="0"
     inkscape:deskcolor="#d1d1d1"
     inkscape:document-units="px"
     showgrid="false"
     inkscape:zoom="1.4513367"
     inkscape:cx="155.71852"
     inkscape:cy="40.65218"
     inkscape:window-width="2560"
     inkscape:window-height="1393"
     inkscape:window-x="0"
     inkscape:window-y="230"
     inkscape:window-maximized="1"
     inkscape:current-layer="layer1">
    <inkscape:grid
       id="grid1"
       units="px"
       originx="0"
       originy="0"
       spacingx="0.26458333"
       spacingy="0.26458333"
       empcolor="#0099e5"
       empopacity="0.30196078"
       color="#0099e5"
       opacity="0.14901961"
       empspacing="4"
       enabled="true"
       visible="false" />
  </sodipodi:namedview>
  <defs
     id="defs1" />
  <g
     inkscape:label="Layer 1"
     inkscape:groupmode="layer"
     id="layer1">
    <rect
       style="fill:#ffffff;stroke:none;stroke-width:6.35;stroke-linecap:round;stroke-linejoin:round;stroke-dasharray:none;paint-order:stroke fill markers"
       id="rect18"
       width="105.83333"
       height="63.5"
       x="0"
       y="0" />
    <circle
       style="fill:none;stroke:#ffffff;stroke-width:5.29167;stroke-linecap:round;stroke-linejoin:round;stroke-dasharray:none;paint-order:stroke fill markers"
       id="circle13"
       cx="45.508331"
       cy="38.100002"
       r="8.4666662" />
    <circle
       style="fill:none;stroke:#000000;stroke-width:4.23333;stroke-linecap:round;stroke-linejoin:round;stroke-dasharray:none;paint-order:stroke fill markers"
       id="circle7"
       cx="45.508331"
       cy="38.100002"
       r="8.4666662" />
    <path
       style="fill:none;stroke:#000000;stroke-width:4.23333;stroke-linecap:round;stroke-linejoin:round;stroke-dasharray:none;paint-order:stroke fill markers"
       d="M 22.224996,29.633332 33.866661,46.566665 H 50.799993"
       id="path8"
       sodipodi:nodetypes="ccc" />
    <path
       style="fill:none;stroke:#ffffff;stroke-width:5.29167;stroke-linecap:round;stroke-linejoin:round;stroke-dasharray:none;paint-order:stroke fill markers"
       d="m 22.224996,29.633332 3.174998,1e-6 c 3.507008,2e-6 6.35,-2.842989 6.35,-6.349997 0,-3.507008 -2.842992,-6.35 -6.35,-6.350002 l -8.466664,-10e-7 v 29.633331 l -16.93333,0"
       id="path11"
       sodipodi:nodetypes="ccscccc" />
    <path
       style="fill:none;stroke:#000000;stroke-width:4.23333;stroke-linecap:round;stroke-linejoin:round;stroke-dasharray:none;paint-order:stroke fill markers"
       d="m 22.224996,29.633332 3.174998,1e-6 c 3.507008,2e-6 6.35,-2.842989 6.35,-6.349997 0,-3.507008 -2.842992,-6.35 -6.35,-6.350002 l -8.466664,-10e-7 V 46.566664 H 0"
       id="path9"
       sodipodi:nodetypes="ccscccc" />
    <path
       style="fill:none;stroke:#000000;stroke-width:4.23333;stroke-linecap:round;stroke-linejoin:round;stroke-dasharray:none;paint-order:stroke fill markers"
       id="circle9"
       sodipodi:type="arc"
       sodipodi:cx="63.499992"
       sodipodi:cy="16.933334"
       sodipodi:rx="4.2333317"
       sodipodi:ry="4.2333317"
       sodipodi:start="0"
       sodipodi:end="3.1415927"
       sodipodi:open="true"
       sodipodi:arc-type="arc"
       d="m 67.733324,16.933334 a 4.2333317,4.2333317 0 0 1 -2.116666,3.666173 4.2333317,4.2333317 0 0 1 -4.233332,0 4.2333317,4.2333317 0 0 1 -2.116665,-3.666173" />
    <path
       style="fill:none;stroke:#ffffff;stroke-width:5.29167;stroke-linecap:round;stroke-linejoin:round;stroke-dasharray:none;paint-order:stroke fill markers"
       d="M 81.499504,46.566664 H 67.73333 V 16.933333"
       id="path18"
       sodipodi:nodetypes="ccc" />
    <path
       style="fill:none;stroke:#000000;stroke-width:4.23333;stroke-linecap:round;stroke-linejoin:round;stroke-dasharray:none;paint-order:stroke fill markers"
       d="M 81.499504,46.566664 H 67.73333 V 16.933333"
       id="path10"
       sodipodi:nodetypes="ccc" />
    <path
       id="path12"
       style="fill:none;stroke:#ffffff;stroke-width:5.29167;stroke-linecap:round;stroke-linejoin:round;paint-order:stroke fill markers"
       d="m 37.041663,38.100001 c 0,2.245499 0.892021,4.399029 2.479829,5.986837 1.587808,1.587808 3.741338,2.47983 5.982915,2.479828 l 13.762256,-2e-6 V 16.933333"
       sodipodi:nodetypes="csccc" />
    <path
       style="fill:none;stroke:#000000;stroke-width:4.23333;stroke-linecap:round;stroke-linejoin:round;stroke-dasharray:none;paint-order:stroke fill markers"
       d="M 45.500485,46.566664 H 59.266663 V 16.933333"
       id="path7"
       sodipodi:nodetypes="ccc" />
    <path
       id="circle11"
       style="fill:none;stroke:#000000;stroke-width:4.23333;stroke-linecap:round;stroke-linejoin:round;paint-order:stroke fill markers"
       d="m 45.50833,46.566668 a 8.4666662,8.4666662 0 0 1 -7.332348,-4.233333 8.4666662,8.4666662 0 0 1 0,-8.466667 8.4666662,8.4666662 0 0 1 7.332348,-4.233333" />
    <circle
       style="fill:none;stroke:#ffffff;stroke-width:5.29167;stroke-linecap:round;stroke-linejoin:round;stroke-dasharray:none;paint-order:stroke fill markers"
       id="circle14"
       cx="81.491661"
       cy="38.100002"
       r="8.4666662" />
    <circle
       style="fill:none;stroke:#000000;stroke-width:4.23333;stroke-linecap:round;stroke-linejoin:round;stroke-dasharray:none;paint-order:stroke fill markers"
       id="circle15"
       cx="81.491661"
       cy="38.100002"
       r="8.4666662" />
    <path
       id="path15"
       style="fill:none;stroke:#ffffff;stroke-width:5.29167;stroke-linecap:round;stroke-linejoin:round;paint-order:stroke fill markers"
       d="m 73.02499,38.100001 c 0,2.245499 0.892021,4.399029 2.479829,5.986837 1.587808,1.587808 3.741338,2.47983 5.982915,2.479828 l 24.345596,-2e-6"
       sodipodi:nodetypes="cscc" />
    <path
       style="fill:none;stroke:#000000;stroke-width:4.23333;stroke-linecap:round;stroke-linejoin:round;stroke-dasharray:none;paint-order:stroke fill markers"
       d="m 81.483812,46.566664 24.349518,0"
       id="path16"
       sodipodi:nodetypes="cc" />
    <path
       id="path17"
       style="fill:none;stroke:#000000;stroke-width:4.23333;stroke-linecap:round;stroke-linejoin:round;paint-order:stroke fill markers"
       d="m 81.491657,46.566668 a 8.4666662,8.4666662 0 0 1 -7.332348,-4.233333 8.4666662,8.4666662 0 0 1 0,-8.466667 8.4666662,8.4666662 0 0 1 7.332348,-4.233333" />
  </g>
</svg>
